<?xml version="1.0" standalone="no"?>
<!DOCTYPE svg PUBLIC "-//W3C//DTD SVG 20010904//EN"
 "http://www.w3.org/TR/2001/REC-SVG-20010904/DTD/svg10.dtd">
<svg version="1.0" xmlns="http://www.w3.org/2000/svg"
 width="848.000000pt" height="848.000000pt" viewBox="0 0 848.000000 848.000000"
 preserveAspectRatio="xMidYMid meet">
<metadata>
Created by potrace 1.14, written by Peter Selinger 2001-2017
</metadata>
<g transform="translate(0.000000,848.000000) scale(0.100000,-0.100000)"
fill="#000000" stroke="none">
<path d="M0 4240 l0 -4240 4240 0 4240 0 0 4240 0 4240 -4240 0 -4240 0 0
-4240z m3906 2350 c2 -208 21 -331 75 -471 76 -196 244 -381 410 -449 40 -17
92 -42 115 -55 62 -36 139 -127 163 -190 26 -69 36 -191 22 -273 -9 -59 -9
-66 12 -94 16 -22 22 -43 21 -81 0 -69 -16 -97 -54 -97 -24 0 -33 7 -50 40
-11 22 -26 40 -33 41 -6 0 -47 0 -89 -1 -124 -2 -177 37 -219 158 -27 77 -23
106 15 110 23 3 34 -4 57 -31 16 -20 45 -45 64 -57 43 -26 66 -17 96 41 19 39
20 42 3 92 -19 58 -91 137 -141 155 -47 16 -109 -18 -147 -81 -35 -57 -36 -71
-12 -252 54 -407 -67 -647 -349 -696 -82 -14 -267 -7 -310 12 -113 50 -250
178 -500 469 -192 224 -371 403 -448 449 -135 80 -291 120 -587 151 -256 26
-317 37 -425 72 -206 68 -409 189 -565 335 -141 133 -240 267 -374 507 -76
135 -82 169 -31 174 27 2 39 -8 119 -102 102 -121 284 -301 371 -367 83 -64
185 -125 280 -169 174 -81 303 -110 780 -176 428 -59 640 -147 831 -346 76
-79 123 -141 315 -413 154 -219 288 -327 438 -355 49 -9 60 -8 100 12 62 31
105 97 127 195 14 64 15 100 9 217 -5 78 -9 193 -9 256 -1 123 13 169 63 214
12 11 21 22 21 26 0 4 -24 23 -53 42 -121 81 -226 216 -269 348 -30 93 -36
294 -13 432 16 98 69 291 100 365 12 29 19 34 42 31 l28 -3 1 -185z m4001 43
c4 -9 -6 -53 -21 -97 -96 -279 -289 -566 -508 -756 -113 -98 -150 -122 -243
-157 -193 -73 -353 -109 -720 -163 -299 -44 -396 -65 -482 -107 -109 -54 -245
-188 -428 -423 -123 -158 -281 -313 -401 -393 -157 -104 -257 -138 -410 -140
-74 0 -99 4 -137 22 -125 60 -201 226 -195 424 l3 92 29 0 c27 0 31 -5 46 -55
42 -138 107 -207 228 -240 41 -11 47 -9 112 24 38 19 95 54 127 77 87 63 273
255 418 429 320 385 396 448 642 534 142 49 280 74 543 97 550 48 696 104 965
374 112 111 198 219 300 373 60 90 71 102 97 102 18 0 31 -6 35 -17z m-3662
-115 c2 -7 15 -56 30 -108 27 -98 95 -250 137 -307 l24 -32 13 72 c7 40 25
101 40 137 25 62 28 65 61 65 l35 0 7 -120 c12 -213 51 -326 161 -461 90 -110
97 -126 97 -216 0 -82 -14 -132 -57 -201 -20 -31 -29 -38 -51 -35 -25 3 -27 7
-34 66 -15 140 -102 256 -280 376 -127 85 -206 180 -249 301 -27 77 -36 250
-19 366 13 93 21 109 57 109 13 0 25 -6 28 -12z m-3538 -253 c66 -220 91 -290
130 -364 190 -363 549 -593 1093 -701 122 -24 135 -29 138 -49 5 -30 -9 -44
-97 -104 -186 -125 -348 -177 -558 -177 -192 0 -316 31 -530 131 -98 45 -103
49 -103 79 0 19 6 33 16 37 9 3 69 -7 133 -22 123 -29 292 -43 377 -30 l47 7
-84 47 c-131 73 -207 128 -301 219 -189 182 -293 397 -327 677 -12 101 -15
278 -4 289 4 4 19 6 33 4 20 -2 28 -12 37 -43z m7135 -105 c-15 -478 -226
-817 -647 -1037 l-79 -41 34 -6 c94 -14 122 -15 205 -6 50 6 139 22 198 36 59
14 115 23 123 20 10 -4 14 -16 12 -38 -3 -36 -26 -51 -195 -122 -357 -151
-700 -116 -1011 104 -67 47 -73 54 -70 82 l3 32 145 28 c263 52 518 151 700
273 107 72 247 213 316 320 64 99 120 220 154 335 34 115 45 132 83 128 l32
-3 -3 -105z m-6911 -1234 c306 -145 638 -212 926 -186 147 13 274 37 424 81
125 36 153 36 157 -4 5 -41 -24 -131 -76 -237 -81 -165 -213 -277 -387 -325
-69 -19 -409 -32 -485 -18 -39 7 -45 12 -48 36 -3 26 4 31 180 116 l183 89
-133 1 c-242 2 -426 56 -617 183 -126 83 -295 244 -295 281 0 53 30 50 171
-17z m6767 18 c3 -27 -8 -41 -90 -120 -239 -231 -453 -322 -796 -341 l-127 -6
173 -83 c166 -80 173 -85 170 -111 -4 -38 -22 -41 -230 -42 -254 -1 -348 19
-481 107 -88 57 -160 144 -213 257 -48 101 -81 213 -71 239 9 23 50 19 171
-18 359 -107 696 -110 1041 -7 101 30 276 100 350 139 22 12 54 21 70 19 26
-2 30 -7 33 -33z m-1923 -575 c175 -103 368 -167 570 -189 116 -12 202 -8 352
16 50 9 111 14 135 12 38 -3 43 -6 46 -30 3 -22 -6 -33 -55 -68 -75 -54 -220
-124 -303 -146 -47 -13 -102 -18 -195 -18 -115 0 -140 3 -215 28 -216 71 -346
168 -444 331 -75 125 -35 149 109 64z m-2937 14 c5 -33 -52 -133 -115 -202
-90 -100 -208 -168 -383 -222 -60 -19 -97 -23 -190 -23 -181 1 -310 43 -483
156 -68 44 -78 55 -75 77 3 23 8 26 51 29 27 2 94 -4 150 -13 119 -19 302 -21
402 -5 179 28 375 99 510 184 80 51 128 57 133 19z m2389 -173 c197 -184 427
-266 723 -259 l135 4 3 -26 c6 -50 -119 -128 -251 -156 -89 -19 -236 -12 -323
15 -111 35 -231 134 -321 267 -76 112 -109 196 -86 218 18 19 52 1 120 -63z
m-1860 34 c29 -76 -194 -364 -339 -437 -167 -84 -423 -68 -582 38 -51 34 -57
41 -54 69 l3 31 170 0 c186 1 242 10 386 66 96 37 234 127 304 198 52 54 99
68 112 35z m-1095 -2169 c254 -635 287 -723 276 -742 -11 -22 -15 -23 -178
-23 l-167 0 -61 158 -60 157 -270 3 -270 2 -30 -82 c-16 -46 -42 -118 -57
-160 l-28 -78 -164 0 c-162 0 -164 0 -174 24 -10 20 25 117 256 712 147 379
273 704 281 722 l13 32 173 -2 172 -3 288 -720z m1163 284 l270 -442 3 428 c1
296 6 432 13 442 15 18 279 19 297 1 19 -19 17 -1451 -2 -1467 -9 -8 -62 -11
-167 -9 l-152 3 -266 430 -266 430 -3 -419 c-1 -289 -6 -423 -13 -433 -14 -16
-260 -19 -290 -3 -19 10 -19 29 -19 735 0 679 1 725 18 734 9 6 82 10 162 11
l145 0 270 -441z m1358 423 c14 -16 17 -55 19 -291 l3 -273 268 291 268 291
200 0 199 0 12 -25 c10 -23 -2 -38 -252 -295 -254 -261 -262 -271 -248 -292
526 -806 540 -830 529 -854 l-11 -24 -194 0 -194 0 -128 218 c-70 119 -157
266 -192 326 l-64 108 -99 -98 -99 -99 0 -209 c0 -181 -2 -212 -17 -228 -14
-16 -33 -18 -155 -18 -77 0 -148 5 -159 10 -19 10 -19 29 -19 735 0 679 1 725
18 734 9 6 80 11 158 11 124 0 143 -2 157 -18z m2329 -707 c254 -635 287 -723
276 -742 -11 -22 -15 -23 -178 -23 l-167 0 -61 158 -60 157 -270 3 -270 2 -30
-82 c-16 -46 -42 -118 -57 -160 l-28 -78 -164 0 c-162 0 -164 0 -174 24 -10
20 25 117 256 712 147 379 273 704 281 722 l13 32 173 -2 172 -3 288 -720z"/>
<path d="M1728 2143 l-75 -208 150 -3 c82 -1 152 0 155 3 5 5 -135 393 -148
408 -4 4 -40 -86 -82 -200z"/>
<path d="M6578 2143 l-75 -208 150 -3 c82 -1 152 0 155 3 5 5 -135 393 -148
408 -4 4 -40 -86 -82 -200z"/>
</g>
</svg>
